<?xml version="1.0" encoding="utf-8"?>
<!-- Generator: Adobe Illustrator 22.0.0, SVG Export Plug-In . SVG Version: 6.00 Build 0)  -->
<svg version="1.1" id="Layer_1" xmlns="http://www.w3.org/2000/svg" xmlns:xlink="http://www.w3.org/1999/xlink" x="0px" y="0px"
	 viewBox="0 0 480 140" style="enable-background:new 0 0 480 140;" xml:space="preserve">
<style type="text/css">
	.st0{fill:#789904;}
	.st1{fill:#636569;}
</style>
<path class="st0" d="M429.127,59.709c12.812-0.533,23.851-4.68,23.829-21.034c-0.019-13.772-8.517-22.719-21.164-22.702
	c-12.007,0.016-18.715,8.635-19.823,20.862l-13.289,0.018c1.892-20.661,13.564-34.28,33.414-34.307
	c19.371-0.027,34.285,14.068,34.315,35.422c0.016,11.53-6.314,24.995-16.073,30.342c11.694,5.652,17.893,16.638,17.911,29.888
	c0.031,22.728-16.754,38.589-37.407,38.617c-19.537,0.027-35.561-14.239-35.911-35.932l13.126-0.018
	c0.656,13.252,11.079,22.536,23.252,22.52c13.443-0.018,23.51-11.739,23.491-26.03c-0.023-16.527-10.921-24.775-25.651-24.239
	L429.127,59.709z"/>
<path class="st0" d="M465.935,10.115c-0.003-2.763,2.263-5.036,5.026-5.039c2.761-0.003,5.036,2.263,5.039,5.026
	c0.003,2.783-2.264,5.036-5.026,5.039C468.212,15.144,465.939,12.898,465.935,10.115z M470.974,14.391
	c2.354-0.003,4.279-1.932,4.276-4.288c-0.003-2.356-1.934-4.281-4.288-4.278c-2.356,0.003-4.281,1.932-4.278,4.288
	C466.688,12.469,468.619,14.394,470.974,14.391z M469.058,7.328l1.778-0.003c1.006-0.002,2.163,0.168,2.164,1.71
	c0.002,0.941-0.577,1.136-0.919,1.308l0.989,2.29l-1.07,0.002l-0.839-2.141l-1.135,0.002l0.003,2.142l-0.963,0.002L469.058,7.328z
	 M470.025,9.638l1.157-0.002c0.449-0.002,0.814-0.215,0.812-0.687c0-0.47-0.322-0.706-0.899-0.704l-1.072,0.002L470.025,9.638z"/>
<path class="st1" d="M100.818,133.553V76.526c0-15.726,12.943-28.665,30.084-28.665c9.451,0,18.899,3.849,24.492,11.894
	c5.599-8.046,15.046-11.894,24.491-11.894c17.143,0,30.093,12.94,30.093,28.665v57.027h-15.398V80.026
	c0-10.669-5.949-17.481-15.047-17.481c-9.967,0-16.44,5.59-16.44,19.933v51.075h-15.398V82.478c0-14.343-6.471-19.933-16.443-19.933
	c-9.094,0-15.043,6.813-15.043,17.481v53.527H100.818z"/>
<polygon class="st1" points="383.565,51.774 358.179,91.62 385.248,133.553 368.139,133.553 348.921,104.464 330.125,133.553 
	313.154,133.553 340.087,91.62 314.136,51.774 331.81,51.774 348.921,78.629 365.897,51.774 "/>
<path class="st1" d="M92.059,89.82c0,24.673-19.257,43.733-44.132,43.733C23.455,133.553,4,114.091,4,89.82
	c0-24.263,19.455-43.705,43.927-43.705C72.802,46.115,92.059,65.16,92.059,89.82z M18.64,89.82
	c0,17.652,12.436,30.694,29.087,30.694c17.251,0,29.688-12.84,29.688-30.694c0-18.052-12.239-30.673-29.688-30.673
	C30.876,59.147,18.64,72.168,18.64,89.82z"/>
<path class="st1" d="M263.052,46.324c-27.195,0-43.8,19.054-43.8,43.242c0,24.901,17.312,45.031,41.678,45.031
	c8.727,0,13.853-1.221,19.152-5.009v-17.323c-4.782,4.497-10.689,7.501-17.563,7.501c-16.256,0-27.725-13.249-27.725-28.959
	c0-16.072,10.765-29.659,27.902-29.659c14.126,0,27.549,8.112,27.549,24.008v11.342v22.974v13.359h15.54V86.57
	C305.785,62.21,289.186,46.324,263.052,46.324z"/>
</svg>
