<svg viewBox="0 0 60 60" xmlns="http://www.w3.org/2000/svg"><path d="M56.894 5.527l-5.163 5.97C46.46 5.257 38.587 1.282 29.796 1.282 13.957 1.282 1.075 14.165 1.075 30s12.882 28.718 28.72 28.718S58.51 45.835 58.51 30c0-6.2-1.983-11.94-5.335-16.638l5.467-6.322c.417-.483.365-1.214-.12-1.63s-1.212-.367-1.63.117zM56.198 30c0 14.56-11.846 26.405-26.406 26.405S3.388 44.56 3.388 30 15.232 3.595 29.792 3.595c8.213 0 15.562 3.77 20.41 9.67L31.794 34.55l-13.13-11.562c-.48-.422-1.21-.377-1.634.104-.42.48-.374 1.21.105 1.632l14.008 12.333c.212.186.484.29.765.29.026 0 .052-.002.078-.004.308-.02.595-.164.797-.397l18.84-21.785c2.884 4.236 4.575 9.345 4.575 14.84z" fill="#474747"/></svg>