<svg xmlns="http://www.w3.org/2000/svg" viewBox="0 0 240 70"><path d="M49.424 68.27V39.746c0-7.865 6.473-14.337 15.047-14.337 4.73 0 9.46 1.92 12.25 5.95 2.8-4.03 7.53-5.95 12.25-5.95 8.58 0 15.05 6.47 15.05 14.33v28.53h-7.7V41.494c0-5.336-2.97-8.743-7.52-8.743-4.982 0-8.22 2.796-8.22 9.97V68.27h-7.71V42.724c0-7.174-3.235-9.97-8.222-9.97-4.548 0-7.524 3.407-7.524 8.743v26.77h-7.698zm95.446-18.002v-5.62c0-7.875-6.65-11.894-13.648-11.894-8.49 0-13.824 6.73-13.824 14.694 0 7.783 5.682 14.347 13.736 14.347 4.374 0 7.962-2.45 10.587-5.776 0 0 3.14-4.32 3.15-5.76zm-3.15 14.855c-3.417 3.1-6.036 4.02-11.374 4.02-12.072 0-20.65-9.972-20.65-22.31 0-11.982 8.228-21.423 21.7-21.423 12.95 0 21.173 7.87 21.173 19.94v22.92h-7.7v-6.62c-1.43 1.86-3.15 3.473-3.15 3.473m49.12-37.756l-12.7 19.93 13.54 20.972h-8.56l-9.61-14.55-9.4 14.55h-8.49l13.47-20.98-12.98-19.93h8.84l8.56 13.43L182 27.36h8.835zm-145.8 19.57c0 12.34-9.63 21.872-22.078 21.872C10.73 68.81 1 59.07 1 46.93c0-12.136 9.73-21.86 21.97-21.86 12.44 0 22.073 9.526 22.073 21.86zm-36.72 0c0 8.83 6.22 15.35 14.542 15.35 8.627 0 14.85-6.42 14.85-15.35 0-9.03-6.124-15.34-14.85-15.34-8.43-.003-14.55 6.51-14.55 15.34z" fill="#80A43E"/><path d="M215.398 29.64c6.45-.27 12.01-2.357 11.998-10.592-.01-6.935-4.288-11.44-10.656-11.43-6.046.007-9.423 4.347-9.98 10.503l-6.692.01c.952-10.4 6.83-17.26 16.824-17.27 9.754-.01 17.263 7.09 17.278 17.84.008 5.808-3.18 12.588-8.093 15.28 5.888 2.845 9.01 8.376 9.018 15.05.016 11.44-8.436 19.43-18.835 19.44-9.837.015-17.906-7.17-18.082-18.09l6.61-.01c.33 6.674 5.577 11.348 11.707 11.34 6.77-.01 11.838-5.91 11.828-13.106-.01-8.32-5.5-12.474-12.916-12.204l-.01-6.75zm18.534-24.973c-.002-1.39 1.14-2.536 2.53-2.537 1.39-.002 2.536 1.14 2.537 2.53 0 1.4-1.14 2.536-2.53 2.537-1.4.002-2.54-1.13-2.54-2.53zm2.538 2.153c1.185-.002 2.155-.973 2.153-2.16s-.974-2.155-2.16-2.153c-1.185.002-2.155.973-2.153 2.16s.973 2.154 2.16 2.153zm-.965-3.556l.895-.002c.506 0 1.09.085 1.09.86 0 .475-.29.573-.463.66l.498 1.152h-.54l-.422-1.077h-.57v1.08h-.484l-.01-2.673zm.486 1.163h.59c.228-.002.41-.11.41-.347s-.16-.355-.452-.354h-.54v.7z" fill="#F9A136"/></svg>